<?xml version="1.0" encoding="utf-8"?>
<!-- Generator: Adobe Illustrator 18.0.0, SVG Export Plug-In . SVG Version: 6.00 Build 0)  -->
<!DOCTYPE svg PUBLIC "-//W3C//DTD SVG 1.1//EN" "http://www.w3.org/Graphics/SVG/1.1/DTD/svg11.dtd">
<svg version="1.1" xmlns="http://www.w3.org/2000/svg" xmlns:xlink="http://www.w3.org/1999/xlink" x="0px" y="0px" width="56px"
	 height="84px" viewBox="0 0 56 84" enable-background="new 0 0 56 84" xml:space="preserve">
<g id="label">
</g>
<g id="BC">
</g>
<g id="brand">
</g>
<g id="generic">
</g>
<g id="negative">
	<g id="report-on_1_">
		<g>
			<path fill="#D86868" d="M34,81c-0.6,0-1-0.4-1-1V60c0-0.6,0.4-1,1-1s1,0.4,1,1v20C35,80.6,34.6,81,34,81z"/>
		</g>
		<polyline id="report-on" fill="#D86868" points="34,59 50,59 48,65 50,71 34,71 		"/>
	</g>
	<g id="report">
		<g>
			<path fill="#CCCCCC" d="M6,81c-0.6,0-1-0.4-1-1V60c0-0.6,0.4-1,1-1s1,0.4,1,1v20C7,80.6,6.6,81,6,81z"/>
		</g>
		<g>
			<path fill="#CCCCCC" d="M22,71H6c-0.6,0-1-0.4-1-1s0.4-1,1-1h14.5l-1.5-3.6c-0.1-0.2-0.1-0.5,0-0.7l1.5-3.6H6c-0.6,0-1-0.4-1-1
				s0.4-1,1-1h16c0.3,0,0.6,0.2,0.8,0.4c0.2,0.3,0.2,0.6,0.1,0.9L21.1,65l1.9,4.6c0.1,0.3,0.1,0.7-0.1,0.9C22.6,70.8,22.3,71,22,71z
				"/>
		</g>
	</g>
	<g id="alert-on">
		<path fill="#D86868" d="M42,3c-6.1,0-11,4.9-11,11s4.9,11,11,11s11-4.9,11-11S48.1,3,42,3z M43,19c0,0.6-0.4,1-1,1s-1-0.4-1-1v-1
			c0-0.6,0.4-1,1-1s1,0.4,1,1V19z M43,15c0,0.6-0.4,1-1,1s-1-0.4-1-1V9c0-0.6,0.4-1,1-1s1,0.4,1,1V15z"/>
	</g>
	<g id="alert">
		<g>
			<path fill="#D86868" d="M14,25C7.9,25,3,20.1,3,14S7.9,3,14,3s11,4.9,11,11S20.1,25,14,25z M14,5c-5,0-9,4-9,9s4,9,9,9s9-4,9-9
				S19,5,14,5z"/>
		</g>
		<g>
			<path fill="#D86868" d="M14,16c-0.6,0-1-0.4-1-1V9c0-0.6,0.4-1,1-1s1,0.4,1,1v6C15,15.6,14.6,16,14,16z"/>
		</g>
		<g>
			<path fill="#D86868" d="M14,20c-0.6,0-1-0.4-1-1v-1c0-0.6,0.4-1,1-1s1,0.4,1,1v1C15,19.6,14.6,20,14,20z"/>
		</g>
	</g>
	<g id="remove-on">
		<path fill="#D86868" d="M42,31c-6.1,0-11,4.9-11,11s4.9,11,11,11s11-4.9,11-11S48.1,31,42,31z M47,43H37c-0.6,0-1-0.4-1-1
			s0.4-1,1-1h10c0.6,0,1,0.4,1,1S47.6,43,47,43z"/>
	</g>
	<g id="remove">
		<g>
			<path fill="#D86868" d="M14,53C7.9,53,3,48.1,3,42s4.9-11,11-11s11,4.9,11,11S20.1,53,14,53z M14,33c-5,0-9,4-9,9s4,9,9,9
				s9-4,9-9S19,33,14,33z"/>
		</g>
		<g>
			<path fill="#D86868" d="M19,43H9c-0.6,0-1-0.4-1-1s0.4-1,1-1h10c0.6,0,1,0.4,1,1S19.6,43,19,43z"/>
		</g>
	</g>
</g>
<g id="creation">
</g>
<g id="games">
</g>
<g id="Social_and_Interaction">
</g>
<g id="Navigation">
</g>
<g id="Friends_Status">
</g>
</svg>
