<svg width="72" height="72" xmlns="http://www.w3.org/2000/svg" xml:space="preserve" version="1.1">

 <g>
  <title>Layer 1</title>
  <path stroke="null" id="svg_2" fill="#ff7f00" d="m69.3,67.3c-10.3,-9.5 -19.2,-17.2 -28.6,-25.1c5.6,-0.2 11.7,-0.5 17.3,-1c0.6,-0.1 1.2,-0.3 1.7,-0.7c2.1,-1.7 5.1,-4.7 7,-7.3c0.3,-0.5 0.5,-1 0.3,-1.6c-2,-9 -5.4,-19.8 -10.3,-29.4c-0.4,-0.7 -1.2,-1.2 -2,-1.2c-18.1,1.1 -35.4,3.6 -50.7,6.7c-1,0.2 -1.7,1.1 -1.7,2.1c0.3,18.6 1.3,37.8 2.7,56.7c0.1,1 0.8,1.8 1.8,2c6.1,0.9 12.1,1.7 20.3,2.2c0.7,0 1.3,-0.7 1,-1.4c-2.8,-7.9 -7.2,-23.6 -7.9,-26.4c0.7,0 1,-0.1 1.6,-0.1c3.7,7.5 9.3,17.9 13.3,26.5c0.5,1.1 1.6,1.8 2.8,1.8c9.5,0.2 19.9,-0.2 30.8,-1.8c0.9,-0.3 1.3,-1.4 0.6,-2zm-35.2,-40.5c-3.6,0.4 -9.1,0.8 -12.6,1c-0.3,-2.2 -0.6,-5.4 -0.7,-7.7c4.3,0.1 8.7,0.2 13.3,0.6c0,2 0,4 0,6.1z" class="st0"/>
  <g stroke="null" id="svg_3">
   <path stroke="null" id="svg_4" fill="#FFFFFF" d="m57.6,37.5c1.8,-1.6 3.9,-3.6 5.3,-5.9c-1.9,-8.4 -4.9,-17.6 -9,-26.2c-15.7,1.1 -32.7,3.3 -47.5,6.1c0.6,19.8 1.5,36 3,53c4.7,0.7 7.9,1.1 13.2,1.5c-2.6,-9.2 -4.6,-16.7 -6.5,-26c2.5,-0.1 5.1,-0.2 7.7,-0.3c6.2,10 9.8,17.2 15.8,27c7.4,0 14.2,-0.2 21.1,-0.8c-9.9,-9.7 -19.1,-18.3 -28.5,-26.6c9,-0.5 18.1,-1.1 25.4,-1.8zm-39.7,-5.9c-0.7,-5 -0.9,-10 -1.1,-15c7,0 14.4,0.3 21.3,0.9c0.2,3.4 0.2,9 0,12.5c-6.5,0.7 -13.3,1.2 -20.2,1.6z" class="st1"/>
  </g>
 </g>
</svg>