<svg width="320" height="78" xmlns="http://www.w3.org/2000/svg" xml:space="preserve" version="1.1">

 <g>
  <title>Layer 1</title>
  <path id="svg_2" fill="#ff7f00" d="m236.3,12.1c-0.4,-0.4 -1,-0.6 -1.5,-0.7c-11.8,-1.9 -27.3,-1.9 -39.8,0c-0.9,0.1 -1.7,0.6 -2.1,1.4c-2.6,4.1 -4.3,8 -5.7,12.9c-0.1,0.3 -0.1,0.6 -0.1,0.9c0,16.5 1,35.5 9,43.4c0.6,0.6 1.3,0.9 2.1,0.9c11.4,0.4 24.1,0.4 36.1,0c1.1,0 2.2,-0.7 2.7,-1.7c7.1,-14.8 11.5,-46.1 -0.7,-57.1zm-14.7,40c-4.2,0.2 -9.4,0.1 -13.1,-0.1c-0.9,-6.4 -1.5,-15.7 -0.9,-22.6c3.9,-0.3 11.7,-0.3 14.6,0c0.7,5.7 0.6,16.8 -0.6,22.7z" class="st0"/>
  <path id="svg_4" fill="#FFFFFF" d="m232.8,15.8c-11.6,-1.4 -26.1,-1.3 -36.3,0c-2,3 -3.9,7.1 -5,11c0,12.9 0.4,34.3 7.8,39.6c9.8,0.5 23.1,0.4 33.9,0c6.3,-12 9.5,-42.1 -0.4,-50.6zm-7.6,40c-6,0.3 -14.1,0.3 -19.8,0c-1.3,-6.7 -2.6,-22.5 -1.1,-30.2c5.7,-0.4 15.6,-0.5 21.1,0c1.9,9.4 0.9,23.1 -0.2,30.2z" class="st1"/>
  <path id="svg_5" fill="#ff7f00" clip-rule="evenodd" fill-rule="evenodd" d="m162.1,1.1c7.7,0.2 15.6,1.1 23.3,2.4c1,0.2 1.7,0.9 1.6,2c-1.2,12.9 -2.9,36.5 -3.4,49.9l16.1,0c1.2,0 2.1,1.2 2.1,2.4c-0.2,2.6 -0.5,5.6 -1.1,8.4c-0.2,0.8 -0.8,1.5 -1.6,1.7c-11.1,2.3 -21,3.6 -32.3,5.4c-1.2,0.2 -2.2,-0.6 -2.4,-1.8c-3.2,-26.4 -4,-46.8 -4.3,-68.3c-0.1,-1.2 0.9,-2.1 2,-2.1z" class="st2"/>
  <path id="svg_6" fill="#FFFFFF" clip-rule="evenodd" fill-rule="evenodd" d="m164.3,4.9c6.4,0.4 12.1,0.6 18.5,1.6c-1.4,16.4 -2.2,35.5 -2.8,51.9c6.7,0 12.8,0 18.1,0c-0.1,2.1 -0.4,3.8 -0.7,5.8c-9.3,2 -19.7,3 -29.3,4.7c-2.9,-21.8 -3.8,-44.4 -3.8,-64z" class="st3"/>
  <path id="svg_7" fill="#ff7f00" clip-rule="evenodd" fill-rule="evenodd" d="m233.8,59.2c12.3,-16 31.8,-36.7 48.8,-49.7c0.7,-0.5 1.5,-0.7 2.3,-0.6c8.6,1.5 17.1,4.1 25.3,8.4c0.7,0.4 0.7,1.4 0.1,1.8c-20.9,11.9 -41.5,33.5 -51.7,53c-0.5,0.9 -1.5,1.3 -2.4,1c-8.7,-2.7 -15.5,-6.6 -22,-11c-0.9,-0.6 -1.1,-2 -0.4,-2.9z" class="st2"/>
  <path id="svg_8" fill="#ff7f00" clip-rule="evenodd" fill-rule="evenodd" d="m232.6,26.7c6.4,-3.4 14.9,-7 21.7,-8.5c0.7,-0.2 1.5,0.1 2,0.7c12.7,15.1 30.4,25.8 62.1,36.6c0.7,0.2 0.9,1.1 0.5,1.6c-6.3,7.1 -15.7,15.1 -23,19.3c-1,0.6 -2.2,0.5 -3.2,-0.1c-20.1,-12.5 -45,-31.2 -60.5,-46.4c-1.1,-0.9 -0.9,-2.5 0.4,-3.2z" class="st2"/>
  <path id="svg_9" fill="#FFFFFF" clip-rule="evenodd" fill-rule="evenodd" d="m284.9,13c-15.8,11.8 -33.6,31.4 -45.9,46.6c5.3,3.7 10.1,6.3 17.1,8.7c8.6,-15.5 26.3,-36.7 46.8,-50c-6.2,-2.5 -12.8,-4.1 -18,-5.3z" class="st3"/>
  <path id="svg_11" fill="#ff7f00" d="m167.8,46.1c-4,-2.4 -7.4,-4.2 -10.9,-6c1.7,-0.9 3.2,-1.8 5,-2.9c0.3,-0.2 0.6,-0.5 0.8,-0.8c1.6,-3.1 3.2,-6.7 4.3,-11c0.3,-1 0,-2.2 -0.7,-2.9c-4.4,-4.6 -9.2,-8.9 -15.5,-13c-0.5,-0.3 -1,-0.5 -1.6,-0.5c-10.7,-0.2 -23,0.6 -35.2,2.4c-0.9,0.1 -1.6,0.9 -1.7,1.8c-1,11.5 -1.9,35.9 -1.7,55.7c0,1.1 0.9,2 2,2c15,0.6 29.2,0.6 45.7,0c1,0 2,-0.6 2.6,-1.5c3.4,-5.8 6.5,-13.1 8.4,-19.8c0.3,-1.3 -0.3,-2.8 -1.5,-3.5zm-25.2,-15.2c-3.3,0.7 -8.2,1.6 -11.6,2c0.1,-2.3 0.2,-4.8 0.5,-7.6c3.4,0.3 8.3,1.1 11.6,1.7c-0.2,1.5 -0.3,2.9 -0.5,3.9zm-3.9,24.5c-2.5,0.3 -5.8,0.4 -7.7,0.3c-0.1,-2.1 -0.3,-5 -0.3,-7.6c2.5,-0.5 6.1,-1.1 9.3,-1.6c-0.4,3.2 -0.9,6 -1.3,8.9z" class="st0"/>
  <g id="svg_12">
   <path id="svg_13" fill="#FFFFFF" d="m149.6,40.1c3.9,-1.8 6.8,-3.3 9.9,-5.6c1.4,-2.7 2.9,-6.4 3.8,-9.7c-4.3,-4.2 -9.6,-7.9 -14.8,-11.2c-11.4,-0.3 -21.3,0.7 -32.1,2.3c-1,18.5 -1.6,33.6 -1.6,50.6c14.3,0.6 27.3,0.5 42.3,0c3.3,-5.1 6.3,-12.2 8,-17.5c-4.4,-2.9 -10.2,-6.2 -15.5,-8.9zm-7.9,18.6c-4.5,0.4 -9.8,0.4 -13.8,0.4c-0.3,-4.9 -0.4,-8.7 -0.4,-13.6c4.8,-1 11,-2.3 16.8,-3.6c-0.6,5.6 -1.5,11.4 -2.6,16.8zm3.8,-25.7c-5.9,1.5 -12.7,3 -17.9,3.8c0.1,-5.3 0.5,-10.2 0.8,-15.1c6.4,0.7 12.6,1.5 18.3,2.7c-0.4,3.3 -0.8,6 -1.2,8.6z" class="st1"/>
  </g>
  <path id="svg_14" fill="#FFFFFF" clip-rule="evenodd" fill-rule="evenodd" d="m236.5,29.1c4.5,-2.5 12.3,-5.2 17.2,-6.5c12.8,14.7 28.6,24.5 57.4,35.3c-4.9,4.8 -11.4,10.2 -16.8,13.9c-20,-12.5 -41.8,-28.5 -57.8,-42.7z" class="st3"/>
  <path id="svg_16" fill="#ff7f00" d="m107.2,19.1c-0.5,-1 -1.4,-1.6 -2.5,-1.7c-12.7,-1.1 -29.4,0.1 -40.9,1.9c-1.1,0.2 -2,0.9 -2.4,1.9c-3.9,10.3 -6.6,21 -8.9,32.3c-0.2,1 0.1,2 0.8,2.7c4.5,4.8 10.6,10.3 15.8,14c0.5,0.3 1,0.5 1.6,0.6c6.7,0.4 23.5,0.3 32.3,0c0.5,0 1.1,-0.2 1.5,-0.5c4.8,-3.2 9.4,-8.8 12.1,-14.4c0.2,-0.5 0.3,-1 0.3,-1.5c-0.5,-11.4 -4.8,-25.3 -9.7,-35.3zm-32,33.2c0.4,-4.6 1.3,-12.2 2.4,-16.6c3.9,-0.3 9.4,-0.5 13.2,-0.4c0.9,4.8 1.5,12.2 1.3,16.8c-5,0.3 -12.3,0.5 -16.9,0.2z" class="st0"/>
  <path id="svg_17" fill="#ff7f00" d="m66.7,14.6c0.3,0.9 1.2,1.4 2.2,1.3c9.7,-1.2 22.3,-1.8 32.1,-1.3c0.9,0.1 1.8,-0.5 2.1,-1.4c0.7,-2.7 1.3,-5.8 1.6,-8.8c0.1,-1.1 -0.7,-2.2 -1.8,-2.2c-12.3,-1.2 -26.3,-0.3 -37,1.7c-1.1,0.2 -1.9,1.3 -1.6,2.5c0.5,2.7 1.4,5.8 2.4,8.2z" class="st0"/>
  <path id="svg_18" fill="#FFFFFF" d="m100.1,5.4c-0.1,1.8 -0.4,3.8 -0.8,5.4c-10.8,-0.2 -19.9,0.3 -29.4,1.5c-0.7,-1.7 -1.3,-3.7 -1.7,-5.5c9.9,-1.4 21,-2 31.9,-1.4z" class="st1"/>
  <path id="svg_20" fill="#FFFFFF" d="m103.5,21.5c-12.9,-0.9 -27.8,0.2 -37.8,1.4c-3,7.7 -7.3,22.6 -8.6,31c3.8,4 9.2,8.7 14,12c10.1,0.6 19.6,0.8 31.1,0c4.1,-3 8.1,-7.4 10.4,-12c-0.9,-10.9 -4.1,-22.9 -9.1,-32.4zm-7.5,34.3c-8.2,0.3 -18.1,0.4 -24.9,0c0.4,-7.2 1.9,-17.3 3.5,-23.7c5.2,-0.6 13.1,-0.9 19,-0.8c2.3,7.5 2.7,18.1 2.4,24.5z" class="st1"/>
  <path id="svg_23" fill="#ff7f00" d="m66.2,72.3c-10,-9.2 -18.7,-16.8 -27.9,-24.5c5.5,-0.2 11.4,-0.5 16.9,-0.9c0.6,0 1.2,-0.3 1.7,-0.7c2.1,-1.7 5,-4.6 6.8,-7.1c0.3,-0.5 0.5,-1 0.3,-1.6c-2,-8.8 -5.3,-19.3 -10.1,-28.7c-0.4,-0.7 -1.1,-1.2 -1.9,-1.1c-17.8,1.1 -34.6,3.5 -49.5,6.5c-0.9,0.2 -1.6,1.1 -1.6,2c0.3,18.2 1.3,36.9 2.5,55.2c0.1,1 0.8,1.8 1.8,1.9c6,0.9 11.8,1.7 19.8,2.1c0.7,0 1.3,-0.7 1,-1.3c-2.7,-7.7 -7,-23 -7.7,-25.7c0.7,0 1,-0.1 1.5,-0.1c3.6,7.3 9.1,17.4 13,25.8c0.5,1.1 1.5,1.7 2.7,1.8c9.3,0.2 19.4,-0.2 30.1,-1.7c0.9,-0.2 1.3,-1.3 0.6,-1.9zm-34.3,-39.5c-3.5,0.4 -8.8,0.8 -12.2,1c-0.3,-2.2 -0.6,-5.3 -0.7,-7.5c4.2,0.1 8.5,0.2 13,0.6c-0.1,1.9 -0.1,3.9 -0.1,5.9z" class="st0"/>
  <path id="svg_25" fill="#FFFFFF" d="m54.8,43.3c1.8,-1.6 3.8,-3.5 5.2,-5.7c-1.8,-8.3 -4.8,-17.2 -8.7,-25.6c-15.4,1 -32,3.3 -46.3,5.9c0.6,19.3 1.5,35 3,51.6c4.5,0.6 7.7,1.1 12.9,1.5c-2.5,-8.9 -4.5,-16.2 -6.3,-25.3c2.4,-0.1 4.9,-0.2 7.5,-0.3c6,9.7 9.5,16.8 15.4,26.3c7.2,0 13.8,-0.2 20.6,-0.8c-9.8,-9.5 -18.7,-17.8 -27.9,-25.9c8.6,-0.5 17.5,-1.1 24.6,-1.7zm-38.6,-5.7c-0.7,-4.9 -0.9,-9.7 -1.1,-14.6c6.8,0 14.1,0.3 20.7,0.9c0.2,3.3 0.2,8.8 0,12.2c-6.3,0.5 -12.9,1 -19.6,1.5z" class="st1"/>
 </g>
</svg>